<?xml version="1.0" encoding="utf-8"?>
<!-- Generator: Adobe Illustrator 17.0.0, SVG Export Plug-In . SVG Version: 6.00 Build 0)  -->
<!DOCTYPE svg PUBLIC "-//W3C//DTD SVG 1.1//EN" "http://www.w3.org/Graphics/SVG/1.1/DTD/svg11.dtd">
<svg version="1.1" id="Layer_1" xmlns="http://www.w3.org/2000/svg" xmlns:xlink="http://www.w3.org/1999/xlink" x="0px" y="0px"
	 width="200px" height="40px" viewBox="0 0 200 40" enable-background="new 0 0 200 40" xml:space="preserve">
<g>
	<path fill="#BE202E" d="M200,19.822c0,0-5.388-13.297-17.78-18.596c0,0-1.293-1.395-11.53-1.209c-10.237,0.186-158.621,0-158.621,0
		L0,3.829l0,32.45l12.5,3.626h158.872c0,0,7.938,0.744,12.464-1.953C183.836,37.953,197.091,29.771,200,19.822z"/>
	<path fill="#FFFFFF" d="M195.69,20l-12.93-15.52c0,0-0.862-0.465-0.97,0.465V20"/>
	<path fill="#FFFFFF" d="M195.69,20l-12.93,15.52c0,0-0.862,0.465-0.97-0.465V20"/>
	<ellipse fill="#FFFFFF" cx="178.556" cy="4.604" rx="2.012" ry="1.736"/>
	<ellipse fill="#FFFFFF" cx="178.556" cy="14.766" rx="2.012" ry="1.736"/>
	<ellipse fill="#FFFFFF" cx="178.556" cy="24.928" rx="2.012" ry="1.736"/>
	<ellipse fill="#FFFFFF" cx="178.556" cy="35.09" rx="2.012" ry="1.736"/>
	<rect x="176.545" y="9.377" fill="#FFFFFF" width="4.024" height="1.115"/>
	<rect x="176.545" y="19.442" fill="#FFFFFF" width="4.024" height="1.116"/>
	<rect x="176.545" y="29.507" fill="#FFFFFF" width="4.024" height="1.115"/>
	<rect x="15.194" y="2.868" fill="#FFFFFF" width="158.19" height="33.958"/>
	<ellipse fill="#FFFFFF" cx="10.021" cy="5.528" rx="1.724" ry="1.488"/>
	<ellipse fill="#FFFFFF" cx="10.021" cy="9.619" rx="1.724" ry="1.488"/>
	<ellipse fill="#FFFFFF" cx="10.021" cy="13.71" rx="1.724" ry="1.488"/>
	<ellipse fill="#FFFFFF" cx="10.021" cy="17.801" rx="1.724" ry="1.488"/>
	<ellipse fill="#FFFFFF" cx="10.021" cy="21.892" rx="1.724" ry="1.488"/>
	<ellipse fill="#FFFFFF" cx="10.021" cy="25.983" rx="1.724" ry="1.488"/>
	<ellipse fill="#FFFFFF" cx="10.021" cy="30.075" rx="1.724" ry="1.488"/>
	<ellipse fill="#FFFFFF" cx="10.021" cy="34.166" rx="1.724" ry="1.488"/>
	<ellipse fill="#FFFFFF" cx="4.974" cy="5.528" rx="1.725" ry="1.488"/>
	<ellipse fill="#FFFFFF" cx="4.974" cy="9.619" rx="1.725" ry="1.488"/>
	<ellipse fill="#FFFFFF" cx="4.974" cy="13.71" rx="1.725" ry="1.488"/>
	<ellipse fill="#FFFFFF" cx="4.974" cy="17.801" rx="1.725" ry="1.488"/>
	<ellipse fill="#FFFFFF" cx="4.974" cy="21.892" rx="1.725" ry="1.488"/>
	<ellipse fill="#FFFFFF" cx="4.974" cy="25.983" rx="1.725" ry="1.488"/>
	<ellipse fill="#FFFFFF" cx="4.974" cy="30.075" rx="1.725" ry="1.488"/>
	<ellipse fill="#FFFFFF" cx="4.974" cy="34.166" rx="1.725" ry="1.488"/>
	<rect x="26.94" y="10.338" fill="#BE202E" width="5.065" height="1.885"/>
	<rect x="26.94" y="13.71" fill="#BE202E" width="5.065" height="1.884"/>
	<rect x="26.94" y="17.082" fill="#BE202E" width="5.065" height="1.884"/>
	<rect x="26.94" y="20.454" fill="#BE202E" width="5.065" height="1.884"/>
	<rect x="26.94" y="23.826" fill="#BE202E" width="5.065" height="1.885"/>
	<rect x="26.94" y="27.198" fill="#BE202E" width="5.065" height="1.885"/>
	<ellipse fill="#BE202E" cx="36.747" cy="7.455" rx="2.508" ry="2.163"/>
	<ellipse fill="#BE202E" cx="36.747" cy="32.238" rx="2.508" ry="2.163"/>
	<ellipse fill="#BE202E" cx="23.182" cy="32.238" rx="2.507" ry="2.163"/>
	<ellipse fill="#BE202E" cx="23.182" cy="7.455" rx="2.507" ry="2.163"/>
	<rect x="149.677" y="6.341" fill="#2376BC" width="20.258" height="9.005"/>
	<rect x="149.677" y="15.345" fill="#ED2224" width="20.258" height="9.004"/>
	<rect x="149.677" y="24.349" fill="#F9A24A" width="20.258" height="9.005"/>
	<rect x="41.918" y="6.341" fill="#2376BC" width="20.258" height="9.005"/>
	<rect x="41.918" y="15.345" fill="#ED2224" width="20.258" height="9.004"/>
	<rect x="41.918" y="24.349" fill="#F9A24A" width="20.258" height="9.005"/>
	<g>
		<rect x="138.111" y="6.341" fill="#E82725" width="7.759" height="13.102"/>
		<rect x="138.111" y="20.252" fill="#F8D04A" width="7.759" height="13.102"/>
		<rect x="129.635" y="6.341" fill="#2376BC" width="7.757" height="13.102"/>
		<rect x="129.635" y="20.252" fill="#2376BC" width="7.757" height="13.102"/>
		<rect x="121.157" y="6.341" fill="#F8D04A" width="7.759" height="13.102"/>
		<rect x="121.157" y="20.252" fill="#E82725" width="7.759" height="13.102"/>
	</g>
	<g>
		<rect x="110.524" y="6.341" fill="#E82725" width="7.759" height="13.102"/>
		<rect x="110.524" y="20.252" fill="#F8D04A" width="7.759" height="13.102"/>
		<rect x="102.048" y="6.341" fill="#2376BC" width="7.757" height="13.102"/>
		<rect x="102.048" y="20.252" fill="#2376BC" width="7.757" height="13.102"/>
		<rect x="93.571" y="6.341" fill="#F8D04A" width="7.758" height="13.102"/>
		<rect x="93.571" y="20.252" fill="#E82725" width="7.758" height="13.102"/>
	</g>
	<g>
		<rect x="82.937" y="6.341" fill="#E82725" width="7.758" height="13.102"/>
		<rect x="82.937" y="20.252" fill="#F8D04A" width="7.758" height="13.102"/>
		<rect x="74.462" y="6.341" fill="#2376BC" width="7.756" height="13.102"/>
		<rect x="74.462" y="20.252" fill="#2376BC" width="7.756" height="13.102"/>
		<rect x="65.984" y="6.341" fill="#F8D04A" width="7.758" height="13.102"/>
		<rect x="65.984" y="20.252" fill="#E82725" width="7.758" height="13.102"/>
	</g>
</g>
</svg>
