<?xml version="1.0" encoding="utf-8"?>
<!-- Generator: Adobe Illustrator 17.0.0, SVG Export Plug-In . SVG Version: 6.00 Build 0)  -->
<!DOCTYPE svg PUBLIC "-//W3C//DTD SVG 1.1//EN" "http://www.w3.org/Graphics/SVG/1.1/DTD/svg11.dtd">
<svg version="1.1" id="Layer_1" xmlns="http://www.w3.org/2000/svg" xmlns:xlink="http://www.w3.org/1999/xlink" x="0px" y="0px"
	 width="40px" height="200px" viewBox="0 0 40 200" enable-background="new 0 0 40 200" xml:space="preserve">
<g>
	<path fill="#BE202E" d="M19.822,0c0,0-13.297,5.388-18.596,17.78c0,0-1.395,1.293-1.209,11.53c0.186,10.237,0,158.621,0,158.621
		L3.829,200h32.45l3.626-12.5V28.628c0,0,0.744-7.938-1.953-12.464C37.953,16.164,29.771,2.909,19.822,0z"/>
	<path fill="#FFFFFF" d="M20,4.31L4.48,17.241c0,0-0.465,0.862,0.465,0.97H20"/>
	<path fill="#FFFFFF" d="M20,4.31l15.52,12.93c0,0,0.465,0.862-0.465,0.97H20"/>
	<ellipse fill="#FFFFFF" cx="4.604" cy="21.444" rx="1.736" ry="2.012"/>
	<ellipse fill="#FFFFFF" cx="14.766" cy="21.444" rx="1.736" ry="2.012"/>
	<ellipse fill="#FFFFFF" cx="24.928" cy="21.444" rx="1.736" ry="2.012"/>
	<ellipse fill="#FFFFFF" cx="35.09" cy="21.444" rx="1.736" ry="2.012"/>
	<rect x="9.377" y="19.431" fill="#FFFFFF" width="1.115" height="4.024"/>
	<rect x="19.442" y="19.431" fill="#FFFFFF" width="1.116" height="4.024"/>
	<rect x="29.507" y="19.431" fill="#FFFFFF" width="1.115" height="4.024"/>
	<rect x="2.868" y="26.616" fill="#FFFFFF" width="33.958" height="158.19"/>
	<ellipse fill="#FFFFFF" cx="5.528" cy="189.979" rx="1.488" ry="1.724"/>
	<ellipse fill="#FFFFFF" cx="9.619" cy="189.979" rx="1.488" ry="1.724"/>
	<ellipse fill="#FFFFFF" cx="13.71" cy="189.979" rx="1.488" ry="1.724"/>
	<ellipse fill="#FFFFFF" cx="17.801" cy="189.979" rx="1.488" ry="1.724"/>
	<ellipse fill="#FFFFFF" cx="21.892" cy="189.979" rx="1.488" ry="1.724"/>
	<ellipse fill="#FFFFFF" cx="25.983" cy="189.979" rx="1.488" ry="1.724"/>
	<ellipse fill="#FFFFFF" cx="30.075" cy="189.979" rx="1.488" ry="1.724"/>
	<ellipse fill="#FFFFFF" cx="34.166" cy="189.979" rx="1.488" ry="1.724"/>
	<ellipse fill="#FFFFFF" cx="5.528" cy="195.026" rx="1.488" ry="1.725"/>
	<ellipse fill="#FFFFFF" cx="9.619" cy="195.026" rx="1.488" ry="1.725"/>
	<ellipse fill="#FFFFFF" cx="13.71" cy="195.026" rx="1.488" ry="1.725"/>
	<ellipse fill="#FFFFFF" cx="17.801" cy="195.026" rx="1.488" ry="1.725"/>
	<ellipse fill="#FFFFFF" cx="21.892" cy="195.026" rx="1.488" ry="1.725"/>
	<ellipse fill="#FFFFFF" cx="25.983" cy="195.026" rx="1.488" ry="1.725"/>
	<ellipse fill="#FFFFFF" cx="30.075" cy="195.026" rx="1.488" ry="1.725"/>
	<ellipse fill="#FFFFFF" cx="34.166" cy="195.026" rx="1.488" ry="1.725"/>
	<rect x="10.338" y="167.995" fill="#BE202E" width="1.885" height="5.065"/>
	<rect x="13.71" y="167.995" fill="#BE202E" width="1.884" height="5.065"/>
	<rect x="17.082" y="167.995" fill="#BE202E" width="1.884" height="5.065"/>
	<rect x="20.454" y="167.995" fill="#BE202E" width="1.884" height="5.065"/>
	<rect x="23.826" y="167.995" fill="#BE202E" width="1.885" height="5.065"/>
	<rect x="27.198" y="167.995" fill="#BE202E" width="1.885" height="5.065"/>
	<ellipse fill="#BE202E" cx="7.455" cy="163.253" rx="2.163" ry="2.508"/>
	<ellipse fill="#BE202E" cx="32.238" cy="163.253" rx="2.163" ry="2.508"/>
	<ellipse fill="#BE202E" cx="32.238" cy="176.818" rx="2.163" ry="2.507"/>
	<ellipse fill="#BE202E" cx="7.455" cy="176.818" rx="2.163" ry="2.507"/>
	<rect x="6.341" y="30.065" fill="#2376BC" width="9.005" height="20.258"/>
	<rect x="15.345" y="30.065" fill="#ED2224" width="9.004" height="20.258"/>
	<rect x="24.349" y="30.065" fill="#F9A24A" width="9.005" height="20.258"/>
	<rect x="6.341" y="137.823" fill="#2376BC" width="9.005" height="20.258"/>
	<rect x="15.345" y="137.823" fill="#ED2224" width="9.004" height="20.258"/>
	<rect x="24.349" y="137.823" fill="#F9A24A" width="9.005" height="20.258"/>
	<g>
		<rect x="6.341" y="54.13" fill="#E82725" width="13.102" height="7.759"/>
		<rect x="20.252" y="54.13" fill="#F8D04A" width="13.102" height="7.759"/>
		<rect x="6.341" y="62.609" fill="#2376BC" width="13.102" height="7.757"/>
		<rect x="20.252" y="62.609" fill="#2376BC" width="13.102" height="7.757"/>
		<rect x="6.341" y="71.085" fill="#F8D04A" width="13.102" height="7.759"/>
		<rect x="20.252" y="71.085" fill="#E82725" width="13.102" height="7.759"/>
	</g>
	<g>
		<rect x="6.341" y="81.717" fill="#E82725" width="13.102" height="7.759"/>
		<rect x="20.252" y="81.717" fill="#F8D04A" width="13.102" height="7.759"/>
		<rect x="6.341" y="90.195" fill="#2376BC" width="13.102" height="7.757"/>
		<rect x="20.252" y="90.195" fill="#2376BC" width="13.102" height="7.757"/>
		<rect x="6.341" y="98.671" fill="#F8D04A" width="13.102" height="7.758"/>
		<rect x="20.252" y="98.671" fill="#E82725" width="13.102" height="7.758"/>
	</g>
	<g>
		<rect x="6.341" y="109.304" fill="#E82725" width="13.102" height="7.758"/>
		<rect x="20.252" y="109.304" fill="#F8D04A" width="13.102" height="7.758"/>
		<rect x="6.341" y="117.782" fill="#2376BC" width="13.102" height="7.756"/>
		<rect x="20.252" y="117.782" fill="#2376BC" width="13.102" height="7.756"/>
		<rect x="6.341" y="126.258" fill="#F8D04A" width="13.102" height="7.758"/>
		<rect x="20.252" y="126.258" fill="#E82725" width="13.102" height="7.758"/>
	</g>
</g>
</svg>
