<?xml version="1.0" encoding="utf-8"?>
<!-- Generator: Adobe Illustrator 17.0.0, SVG Export Plug-In . SVG Version: 6.00 Build 0)  -->
<!DOCTYPE svg PUBLIC "-//W3C//DTD SVG 1.1//EN" "http://www.w3.org/Graphics/SVG/1.1/DTD/svg11.dtd">
<svg version="1.1" id="Layer_1" xmlns="http://www.w3.org/2000/svg" xmlns:xlink="http://www.w3.org/1999/xlink" x="0px" y="0px"
	 width="200px" height="46.617px" viewBox="0 0 200 46.617" enable-background="new 0 0 200 46.617" xml:space="preserve">
<g>
	<path fill="#BE202E" d="M200,23.101c0,0-5.388-15.496-17.78-21.673c0,0-1.293-1.625-11.53-1.408c-10.237,0.216-158.621,0-158.621,0
		L0,4.463l0,37.818l12.5,4.226h158.872c0,0,7.938,0.867,12.464-2.276C183.836,44.232,197.091,34.696,200,23.101z"/>
	<path fill="#FFFFFF" d="M195.69,23.308l-12.93-18.087c0,0-0.862-0.542-0.97,0.542v17.545"/>
	<path fill="#FFFFFF" d="M195.69,23.308l-12.93,18.087c0,0-0.862,0.541-0.97-0.542V23.308"/>
	<ellipse fill="#FFFFFF" cx="178.556" cy="5.366" rx="2.012" ry="2.024"/>
	<ellipse fill="#FFFFFF" cx="178.556" cy="17.209" rx="2.012" ry="2.023"/>
	<ellipse fill="#FFFFFF" cx="178.556" cy="29.052" rx="2.012" ry="2.023"/>
	<ellipse fill="#FFFFFF" cx="178.556" cy="40.894" rx="2.012" ry="2.023"/>
	<rect x="176.545" y="10.928" fill="#FFFFFF" width="4.024" height="1.3"/>
	<rect x="176.545" y="22.658" fill="#FFFFFF" width="4.024" height="1.3"/>
	<rect x="176.545" y="34.388" fill="#FFFFFF" width="4.024" height="1.3"/>
	<rect x="15.194" y="3.342" fill="#FFFFFF" width="158.19" height="39.575"/>
	<ellipse fill="#FFFFFF" cx="10.021" cy="6.442" rx="1.724" ry="1.734"/>
	<ellipse fill="#FFFFFF" cx="10.021" cy="11.21" rx="1.724" ry="1.734"/>
	<ellipse fill="#FFFFFF" cx="10.021" cy="15.978" rx="1.724" ry="1.734"/>
	<ellipse fill="#FFFFFF" cx="10.021" cy="20.746" rx="1.724" ry="1.734"/>
	<ellipse fill="#FFFFFF" cx="10.021" cy="25.514" rx="1.724" ry="1.734"/>
	<ellipse fill="#FFFFFF" cx="10.021" cy="30.282" rx="1.724" ry="1.734"/>
	<ellipse fill="#FFFFFF" cx="10.021" cy="35.05" rx="1.724" ry="1.734"/>
	<ellipse fill="#FFFFFF" cx="10.021" cy="39.818" rx="1.724" ry="1.734"/>
	<ellipse fill="#FFFFFF" cx="4.974" cy="6.442" rx="1.725" ry="1.734"/>
	<ellipse fill="#FFFFFF" cx="4.974" cy="11.21" rx="1.725" ry="1.734"/>
	<ellipse fill="#FFFFFF" cx="4.974" cy="15.978" rx="1.725" ry="1.734"/>
	<ellipse fill="#FFFFFF" cx="4.974" cy="20.746" rx="1.725" ry="1.734"/>
	<ellipse fill="#FFFFFF" cx="4.974" cy="25.514" rx="1.725" ry="1.734"/>
	<ellipse fill="#FFFFFF" cx="4.974" cy="30.282" rx="1.725" ry="1.734"/>
	<ellipse fill="#FFFFFF" cx="4.974" cy="35.05" rx="1.725" ry="1.734"/>
	<ellipse fill="#FFFFFF" cx="4.974" cy="39.818" rx="1.725" ry="1.734"/>
	<rect x="26.94" y="12.048" fill="#BE202E" width="5.065" height="2.196"/>
	<rect x="26.94" y="15.978" fill="#BE202E" width="5.065" height="2.196"/>
	<rect x="26.94" y="19.908" fill="#BE202E" width="5.065" height="2.196"/>
	<rect x="26.94" y="23.838" fill="#BE202E" width="5.065" height="2.196"/>
	<rect x="26.94" y="27.767" fill="#BE202E" width="5.065" height="2.196"/>
	<rect x="26.94" y="31.697" fill="#BE202E" width="5.065" height="2.196"/>
	<ellipse fill="#BE202E" cx="36.747" cy="8.689" rx="2.508" ry="2.521"/>
	<ellipse fill="#BE202E" cx="36.747" cy="37.571" rx="2.508" ry="2.521"/>
	<ellipse fill="#BE202E" cx="23.182" cy="37.571" rx="2.507" ry="2.521"/>
	<ellipse fill="#BE202E" cx="23.182" cy="8.689" rx="2.507" ry="2.521"/>
	<rect x="149.677" y="7.389" fill="#2376BC" width="20.258" height="10.494"/>
	<rect x="149.677" y="17.884" fill="#ED2224" width="20.258" height="10.493"/>
	<rect x="149.677" y="28.377" fill="#F9A24A" width="20.258" height="10.494"/>
	<rect x="41.918" y="7.389" fill="#2376BC" width="20.258" height="10.494"/>
	<rect x="41.918" y="17.884" fill="#ED2224" width="20.258" height="10.493"/>
	<rect x="41.918" y="28.377" fill="#F9A24A" width="20.258" height="10.494"/>
	<g>
		<rect x="138.111" y="7.389" fill="#E82725" width="7.759" height="15.269"/>
		<rect x="138.111" y="23.602" fill="#F8D04A" width="7.759" height="15.269"/>
		<rect x="129.635" y="7.389" fill="#2376BC" width="7.757" height="15.269"/>
		<rect x="129.635" y="23.602" fill="#2376BC" width="7.757" height="15.269"/>
		<rect x="121.157" y="7.389" fill="#F8D04A" width="7.759" height="15.269"/>
		<rect x="121.157" y="23.602" fill="#E82725" width="7.759" height="15.269"/>
	</g>
	<g>
		<rect x="110.524" y="7.389" fill="#E82725" width="7.759" height="15.269"/>
		<rect x="110.524" y="23.602" fill="#F8D04A" width="7.759" height="15.269"/>
		<rect x="102.048" y="7.389" fill="#2376BC" width="7.757" height="15.269"/>
		<rect x="102.048" y="23.602" fill="#2376BC" width="7.757" height="15.269"/>
		<rect x="93.571" y="7.389" fill="#F8D04A" width="7.758" height="15.269"/>
		<rect x="93.571" y="23.602" fill="#E82725" width="7.758" height="15.269"/>
	</g>
	<g>
		<rect x="82.937" y="7.389" fill="#E82725" width="7.758" height="15.269"/>
		<rect x="82.937" y="23.602" fill="#F8D04A" width="7.758" height="15.269"/>
		<rect x="74.462" y="7.389" fill="#2376BC" width="7.756" height="15.269"/>
		<rect x="74.462" y="23.602" fill="#2376BC" width="7.756" height="15.269"/>
		<rect x="65.984" y="7.389" fill="#F8D04A" width="7.758" height="15.269"/>
		<rect x="65.984" y="23.602" fill="#E82725" width="7.758" height="15.269"/>
	</g>
</g>
</svg>
