<?xml version="1.0" encoding="utf-8"?>
<!-- Generator: Adobe Illustrator 17.0.0, SVG Export Plug-In . SVG Version: 6.00 Build 0)  -->
<!DOCTYPE svg PUBLIC "-//W3C//DTD SVG 1.1//EN" "http://www.w3.org/Graphics/SVG/1.1/DTD/svg11.dtd">
<svg version="1.1" id="Layer_1" xmlns="http://www.w3.org/2000/svg" xmlns:xlink="http://www.w3.org/1999/xlink" x="0px" y="0px"
	 width="46.617px" height="200px" viewBox="0 0 46.617 200" enable-background="new 0 0 46.617 200" xml:space="preserve">
<g>
	<path fill="#BE202E" d="M23.101,0c0,0-15.496,5.388-21.673,17.78c0,0-1.625,1.293-1.408,11.53c0.216,10.237,0,158.621,0,158.621
		L4.463,200h37.818l4.226-12.5V28.628c0,0,0.867-7.938-2.276-12.464C44.232,16.164,34.696,2.909,23.101,0z"/>
	<path fill="#FFFFFF" d="M23.308,4.31L5.221,17.241c0,0-0.542,0.862,0.542,0.97h17.545"/>
	<path fill="#FFFFFF" d="M23.308,4.31l18.087,12.93c0,0,0.541,0.862-0.542,0.97H23.308"/>
	<ellipse fill="#FFFFFF" cx="5.366" cy="21.444" rx="2.024" ry="2.012"/>
	<ellipse fill="#FFFFFF" cx="17.209" cy="21.444" rx="2.023" ry="2.012"/>
	<ellipse fill="#FFFFFF" cx="29.052" cy="21.444" rx="2.023" ry="2.012"/>
	<ellipse fill="#FFFFFF" cx="40.894" cy="21.444" rx="2.023" ry="2.012"/>
	<rect x="10.928" y="19.431" fill="#FFFFFF" width="1.3" height="4.024"/>
	<rect x="22.658" y="19.431" fill="#FFFFFF" width="1.3" height="4.024"/>
	<rect x="34.388" y="19.431" fill="#FFFFFF" width="1.3" height="4.024"/>
	<rect x="3.342" y="26.616" fill="#FFFFFF" width="39.575" height="158.19"/>
	<ellipse fill="#FFFFFF" cx="6.442" cy="189.979" rx="1.734" ry="1.724"/>
	<ellipse fill="#FFFFFF" cx="11.21" cy="189.979" rx="1.734" ry="1.724"/>
	<ellipse fill="#FFFFFF" cx="15.978" cy="189.979" rx="1.734" ry="1.724"/>
	<ellipse fill="#FFFFFF" cx="20.746" cy="189.979" rx="1.734" ry="1.724"/>
	<ellipse fill="#FFFFFF" cx="25.514" cy="189.979" rx="1.734" ry="1.724"/>
	<ellipse fill="#FFFFFF" cx="30.282" cy="189.979" rx="1.734" ry="1.724"/>
	<ellipse fill="#FFFFFF" cx="35.05" cy="189.979" rx="1.734" ry="1.724"/>
	<ellipse fill="#FFFFFF" cx="39.817" cy="189.979" rx="1.734" ry="1.724"/>
	<ellipse fill="#FFFFFF" cx="6.442" cy="195.026" rx="1.734" ry="1.725"/>
	<ellipse fill="#FFFFFF" cx="11.21" cy="195.026" rx="1.734" ry="1.725"/>
	<ellipse fill="#FFFFFF" cx="15.978" cy="195.026" rx="1.734" ry="1.725"/>
	<ellipse fill="#FFFFFF" cx="20.746" cy="195.026" rx="1.734" ry="1.725"/>
	<ellipse fill="#FFFFFF" cx="25.514" cy="195.026" rx="1.734" ry="1.725"/>
	<ellipse fill="#FFFFFF" cx="30.282" cy="195.026" rx="1.734" ry="1.725"/>
	<ellipse fill="#FFFFFF" cx="35.05" cy="195.026" rx="1.734" ry="1.725"/>
	<ellipse fill="#FFFFFF" cx="39.817" cy="195.026" rx="1.734" ry="1.725"/>
	<rect x="12.048" y="167.995" fill="#BE202E" width="2.196" height="5.065"/>
	<rect x="15.978" y="167.995" fill="#BE202E" width="2.196" height="5.065"/>
	<rect x="19.908" y="167.995" fill="#BE202E" width="2.196" height="5.065"/>
	<rect x="23.838" y="167.995" fill="#BE202E" width="2.196" height="5.065"/>
	<rect x="27.767" y="167.995" fill="#BE202E" width="2.196" height="5.065"/>
	<rect x="31.697" y="167.995" fill="#BE202E" width="2.196" height="5.065"/>
	<ellipse fill="#BE202E" cx="8.689" cy="163.253" rx="2.521" ry="2.508"/>
	<ellipse fill="#BE202E" cx="37.571" cy="163.253" rx="2.521" ry="2.508"/>
	<ellipse fill="#BE202E" cx="37.571" cy="176.818" rx="2.521" ry="2.507"/>
	<ellipse fill="#BE202E" cx="8.689" cy="176.818" rx="2.521" ry="2.507"/>
	<rect x="7.389" y="30.065" fill="#2376BC" width="10.494" height="20.258"/>
	<rect x="17.884" y="30.065" fill="#ED2224" width="10.493" height="20.258"/>
	<rect x="28.377" y="30.065" fill="#F9A24A" width="10.494" height="20.258"/>
	<rect x="7.389" y="137.823" fill="#2376BC" width="10.494" height="20.258"/>
	<rect x="17.884" y="137.823" fill="#ED2224" width="10.493" height="20.258"/>
	<rect x="28.377" y="137.823" fill="#F9A24A" width="10.494" height="20.258"/>
	<g>
		<rect x="7.389" y="54.13" fill="#E82725" width="15.269" height="7.759"/>
		<rect x="23.602" y="54.13" fill="#F8D04A" width="15.269" height="7.759"/>
		<rect x="7.389" y="62.609" fill="#2376BC" width="15.269" height="7.757"/>
		<rect x="23.602" y="62.609" fill="#2376BC" width="15.269" height="7.757"/>
		<rect x="7.389" y="71.085" fill="#F8D04A" width="15.269" height="7.759"/>
		<rect x="23.602" y="71.085" fill="#E82725" width="15.269" height="7.759"/>
	</g>
	<g>
		<rect x="7.389" y="81.717" fill="#E82725" width="15.269" height="7.759"/>
		<rect x="23.602" y="81.717" fill="#F8D04A" width="15.269" height="7.759"/>
		<rect x="7.389" y="90.195" fill="#2376BC" width="15.269" height="7.757"/>
		<rect x="23.602" y="90.195" fill="#2376BC" width="15.269" height="7.757"/>
		<rect x="7.389" y="98.671" fill="#F8D04A" width="15.269" height="7.758"/>
		<rect x="23.602" y="98.671" fill="#E82725" width="15.269" height="7.758"/>
	</g>
	<g>
		<rect x="7.389" y="109.304" fill="#E82725" width="15.269" height="7.758"/>
		<rect x="23.602" y="109.304" fill="#F8D04A" width="15.269" height="7.758"/>
		<rect x="7.389" y="117.782" fill="#2376BC" width="15.269" height="7.756"/>
		<rect x="23.602" y="117.782" fill="#2376BC" width="15.269" height="7.756"/>
		<rect x="7.389" y="126.258" fill="#F8D04A" width="15.269" height="7.758"/>
		<rect x="23.602" y="126.258" fill="#E82725" width="15.269" height="7.758"/>
	</g>
</g>
</svg>
