<?xml version="1.0" encoding="utf-8"?>
<!-- Generator: Adobe Illustrator 17.0.0, SVG Export Plug-In . SVG Version: 6.00 Build 0)  -->
<!DOCTYPE svg PUBLIC "-//W3C//DTD SVG 1.1//EN" "http://www.w3.org/Graphics/SVG/1.1/DTD/svg11.dtd">
<svg version="1.1" id="Layer_1" xmlns="http://www.w3.org/2000/svg" xmlns:xlink="http://www.w3.org/1999/xlink" x="0px" y="0px"
	 width="80px" height="40px" viewBox="0 0 80 40" enable-background="new 0 0 80 40" xml:space="preserve">
<g>
	<path fill="#EA9043" d="M79.994,20c0,0,0.514-6.604-7.708-11.944c-8.221-5.339-16.751-7.447-21.272-7.868
		c-4.523-0.422-37.204,0-37.204,0S3.944,1.171,2.197,3.7C0.449,6.23-0.168,10.304,0.038,20"/>
	<path fill="#EA9043" d="M79.994,20c0,0,0.514,6.604-7.708,11.943c-8.221,5.34-16.751,7.447-21.272,7.87
		c-4.523,0.421-37.204,0-37.204,0s-9.866-0.984-11.613-3.514C0.449,33.77-0.168,29.696,0.038,20"/>
	<path fill="#623B17" d="M47.382,6.777h-11.84c0,0-1.974,0.224-2.137,3.822v11.242v8.093v1.35c0,0,0.409,2.472,2.466,2.641h11.511
		C47.382,33.925,54.782,20.098,47.382,6.777z"/>
	<path fill="#9D4F23" d="M56.664,4.544v31.192c0,0,18.397-3.933,20.658-14.332C77.322,21.404,77.528,9.742,56.664,4.544z"/>
	<path fill="#9B5023" d="M12.371,6.698v28.478c0,0-9.917-0.563-10.534-5.48C1.22,24.777,1.58,13.607,1.58,13.607
		S1.528,7.143,12.371,6.698z"/>
	<path fill="none" d="M20.695,31.663c-3.632,0-6.577-4.027-6.577-8.993v-4.637c0-4.966,2.945-8.992,6.577-8.992h14.902
		c3.632,0,6.578,4.026,6.578,8.992v4.637c0,4.966-2.945,8.993-6.578,8.993H20.695z"/>
	<g>
		<path fill="#251E22" d="M32.616,20v-3.794c0-1.242-0.736-2.248-1.644-2.248h-3.289c-0.908,0-1.644,1.006-1.644,2.248V20H32.616z"
			/>
		<path fill="#251E22" d="M32.616,24.356v-3.418H26.04v3.418c0,1.242,0.737,2.249,1.644,2.249h3.289
			C31.88,26.605,32.616,25.597,32.616,24.356z"/>
	</g>
	<g>
		<path fill="#211D1D" d="M24.6,20v-3.794c0-1.242-0.736-2.248-1.643-2.248h-3.29c-0.907,0-1.645,1.006-1.645,2.248V20H24.6z"/>
		<path fill="#211D1D" d="M24.6,24.356v-3.418h-6.577v3.418c0,1.242,0.738,2.249,1.645,2.249h3.29
			C23.864,26.605,24.6,25.597,24.6,24.356z"/>
	</g>
	<path fill="#9D4F23" d="M46.49,9.041h-9.866c0,0-1.644,0.186-1.781,3.184v9.368v6.744v1.124c0,0,0.34,2.06,2.055,2.201h9.591
		C46.49,31.663,52.657,20.14,46.49,9.041z"/>
	<path fill="#789F98" d="M43.614,10h-3.221c0,0,7.741,10.187,0,20.586h3.44C43.834,30.586,52.246,20.469,43.614,10z"/>
	<ellipse fill="#251E22" cx="38.886" cy="20.293" rx="2.544" ry="3.478"/>
	<path fill="#789F98" d="M68.683,23.267l0.624,0.013l0.011-0.947l3.247,0.07l-0.01,0.858l0.624,0.013
		c0.947,0.022,1.725-0.904,1.737-2.063c0.014-1.161-0.742-2.118-1.689-2.139l-0.624-0.013l-0.011,0.859l-3.247-0.07l0.009-0.77
		l-0.624-0.013c-0.946-0.021-1.725,0.903-1.738,2.063C66.98,22.289,67.737,23.246,68.683,23.267z"/>
	<path fill="#789F98" d="M4.767,18.062l-0.01,0.854l0.693,0.016L5.398,23.37l-0.627-0.013l-0.01,0.853
		c-0.014,1.294,0.662,2.358,1.51,2.376c0.849,0.019,1.549-1.016,1.564-2.309l0.01-0.854l-0.628-0.014l0.051-4.44l0.563,0.012
		l0.01-0.854c0.015-1.294-0.662-2.357-1.51-2.375C5.483,15.734,4.782,16.768,4.767,18.062z"/>
</g>
</svg>
