<?xml version="1.0" encoding="utf-8"?>
<!-- Generator: Adobe Illustrator 17.0.0, SVG Export Plug-In . SVG Version: 6.00 Build 0)  -->
<!DOCTYPE svg PUBLIC "-//W3C//DTD SVG 1.1//EN" "http://www.w3.org/Graphics/SVG/1.1/DTD/svg11.dtd">
<svg version="1.1" id="Layer_1" xmlns="http://www.w3.org/2000/svg" xmlns:xlink="http://www.w3.org/1999/xlink" x="0px" y="0px"
	 width="40px" height="80px" viewBox="0 0 40 80" enable-background="new 0 0 40 80" xml:space="preserve">
<g>
	<path fill="#EA9043" d="M20,0.006c0,0-6.604-0.514-11.944,7.708c-5.339,8.221-7.447,16.751-7.868,21.272
		c-0.422,4.523,0,37.204,0,37.204S1.171,76.056,3.7,77.803c2.529,1.747,6.604,2.365,16.3,2.159"/>
	<path fill="#EA9043" d="M20,0.006c0,0,6.604-0.514,11.943,7.708c5.34,8.221,7.447,16.751,7.87,21.272
		c0.421,4.523,0,37.204,0,37.204s-0.984,9.866-3.514,11.613C33.77,79.551,29.696,80.168,20,79.962"/>
	<path fill="#623B17" d="M6.777,32.618v11.84c0,0,0.224,1.974,3.822,2.137h11.242h8.093h1.35c0,0,2.472-0.409,2.641-2.466V32.618
		C33.925,32.618,20.098,25.218,6.777,32.618z"/>
	<path fill="#9D4F23" d="M4.544,23.336h31.192c0,0-3.933-18.397-14.332-20.658C21.404,2.678,9.742,2.472,4.544,23.336z"/>
	<path fill="#9B5023" d="M6.698,67.629h28.478c0,0-0.563,9.917-5.48,10.534c-4.919,0.616-16.089,0.257-16.089,0.257
		S7.143,78.472,6.698,67.629z"/>
	<path fill="none" d="M31.663,59.305c0,3.632-4.027,6.577-8.993,6.577h-4.637c-4.966,0-8.992-2.945-8.992-6.577V44.403
		c0-3.632,4.026-6.578,8.992-6.578h4.637c4.966,0,8.993,2.945,8.993,6.578V59.305z"/>
	<g>
		<path fill="#251E22" d="M20,47.384h-3.794c-1.242,0-2.248,0.736-2.248,1.644v3.289c0,0.908,1.006,1.644,2.248,1.644H20V47.384z"/>
		<path fill="#251E22" d="M24.356,47.384h-3.418v6.577h3.418c1.242,0,2.249-0.737,2.249-1.644v-3.289
			C26.605,48.12,25.597,47.384,24.356,47.384z"/>
	</g>
	<g>
		<path fill="#211D1D" d="M20,55.4h-3.794c-1.242,0-2.248,0.736-2.248,1.643v3.29c0,0.907,1.006,1.645,2.248,1.645H20V55.4z"/>
		<path fill="#211D1D" d="M24.356,55.4h-3.418v6.577h3.418c1.242,0,2.249-0.738,2.249-1.645v-3.29
			C26.605,56.136,25.597,55.4,24.356,55.4z"/>
	</g>
	<path fill="#9D4F23" d="M9.041,33.51v9.866c0,0,0.186,1.644,3.184,1.781h9.368h6.744h1.124c0,0,2.06-0.34,2.201-2.055V33.51
		C31.663,33.51,20.14,27.343,9.041,33.51z"/>
	<path fill="#789F98" d="M10,36.386v3.221c0,0,10.187-7.741,20.586,0v-3.44C30.586,36.166,20.469,27.754,10,36.386z"/>
	<ellipse fill="#251E22" cx="20.293" cy="41.114" rx="3.478" ry="2.544"/>
	<path fill="#789F98" d="M23.267,11.317l0.013-0.624l-0.947-0.011l0.07-3.247l0.858,0.01l0.013-0.624
		c0.022-0.947-0.904-1.725-2.063-1.737c-1.161-0.014-2.118,0.742-2.139,1.689l-0.013,0.624l0.859,0.011l-0.07,3.247l-0.77-0.009
		l-0.013,0.624c-0.021,0.946,0.903,1.725,2.063,1.738C22.289,13.02,23.246,12.263,23.267,11.317z"/>
	<path fill="#789F98" d="M18.062,75.233l0.854,0.01l0.016-0.693l4.438,0.052l-0.013,0.627l0.853,0.01
		c1.294,0.014,2.358-0.662,2.376-1.51c0.019-0.849-1.016-1.549-2.309-1.564l-0.854-0.01l-0.014,0.628l-4.44-0.051l0.012-0.563
		l-0.854-0.01c-1.294-0.015-2.357,0.662-2.375,1.51C15.734,74.517,16.768,75.218,18.062,75.233z"/>
</g>
</svg>
