<?xml version="1.0" encoding="utf-8"?>
<!-- Generator: Adobe Illustrator 17.0.0, SVG Export Plug-In . SVG Version: 6.00 Build 0)  -->
<!DOCTYPE svg PUBLIC "-//W3C//DTD SVG 1.1//EN" "http://www.w3.org/Graphics/SVG/1.1/DTD/svg11.dtd">
<svg version="1.1" id="Layer_1" xmlns="http://www.w3.org/2000/svg" xmlns:xlink="http://www.w3.org/1999/xlink" x="0px" y="0px"
	 width="120px" height="40px" viewBox="0 0 120 40" enable-background="new 0 0 120 40" xml:space="preserve">
<g>
	<g>
		<path fill="#F9A147" d="M120,19.853c0,0-20.834-16.718-42.803-19.29c0,0-5.303-0.786-15.151-0.5
			c-9.849,0.286-42.879,0.929-42.879,0.929s-7.651-0.714-9.318,5.645c0,0-0.53,8.002-0.303,13.217L9.489,32.355
			c0,0,0.814,6.073,6.42,6.573C21.515,39.43,73.312,40,73.312,40s13.431-0.142,31.461-10.288
			C104.773,29.712,115.985,23.378,120,19.853z"/>
	</g>
	<g>
		<path fill="#412312" d="M20.001,29.712c-1.381,0-2.501-1.071-2.501-2.393v-14.36c0-1.322,1.12-2.393,2.501-2.393h7.193
			c1.381,0,2.502,1.072,2.502,2.393v14.36c0,1.322-1.121,2.393-2.502,2.393H20.001z"/>
	</g>
	<g>
		<path fill="#BC2128" d="M68.864,38.438c30.303-2.286,46.667-18.437,46.667-18.437S99.166,3.849,68.864,1.563L22.689,2.706
			c0,0-8.158-0.737-8.823,7.074c0,0,0.679-3.143,5.3-4.502c0,0,2.879-0.715,9.243-0.499l40.757-0.643c0,0,16.574,1.278,27.078,8.823
			h-31.5v4.965h36.635c0.486,0.662,0.931,1.352,1.322,2.077c-0.354,0.656-0.749,1.284-1.182,1.888H64.745v4.965h31.754
			c-10.488,7.71-27.333,9.012-27.333,9.012l-40.757-0.643c-6.364,0.215-9.243-0.5-9.243-0.5c-4.621-1.358-5.3-4.502-5.3-4.502
			c0.665,7.81,8.823,7.074,8.823,7.074L68.864,38.438z"/>
	</g>
	<g>
		<path fill="#412312" d="M108.065,20.72h1.016c0.262,0.625,0.852,1.063,1.542,1.063c0.932,0,1.688-0.799,1.688-1.782
			s-0.756-1.783-1.688-1.783c-0.69,0-1.279,0.437-1.542,1.062h-1.016c-0.263-0.624-0.852-1.062-1.541-1.062
			c-0.933,0-1.688,0.799-1.688,1.783s0.755,1.782,1.688,1.782C107.214,21.783,107.803,21.345,108.065,20.72z"/>
	</g>
	<g>
		<path fill="#BC2128" d="M20.608,29.712c-1.382,0-2.502-1.071-2.502-2.393v-14.36c0-1.322,1.12-2.393,2.502-2.393h7.193
			c1.382,0,2.502,1.072,2.502,2.393v14.36c0,1.322-1.12,2.393-2.502,2.393H20.608z"/>
	</g>
	<g>
		<rect x="19.166" y="17.924" fill="#2A1C1F" width="1.061" height="4.787"/>
	</g>
	<g>
		<rect x="14.318" y="12.958" fill="#BC2128" width="3.788" height="4.965"/>
	</g>
	<g>
		<rect x="28.409" y="12.958" fill="#BC2128" width="3.788" height="4.965"/>
	</g>
	<g>
		<rect x="28.409" y="22.353" fill="#BC2128" width="3.788" height="4.966"/>
	</g>
	<g>
		<rect x="14.318" y="22.187" fill="#BC2128" width="3.788" height="4.966"/>
	</g>
	<g>
		<path fill="#BC2128" d="M2.424,17.424C1.085,17.424,0,16.325,0,14.97l0-2.094c0-1.355,1.085-2.454,2.424-2.454L13.03,8.707
			c1.338,0,2.424,1.1,2.424,2.454v5.523c0,1.355-1.086,2.454-2.424,2.454L2.424,17.424z"/>
	</g>
	<g>
		<path fill="#E3E418" d="M1.512,14.755v-1.664c0-1.114,0.898-2.021,2.002-2.021l8.414-1.361c1.116-0.001,2.014,0.906,2.014,2.02
			v4.388c0,1.114-0.898,2.022-2.002,2.022l-8.44-1.364C2.41,16.776,1.512,15.869,1.512,14.755z M13.791,11.729
			c0-1.036-0.83-1.879-1.85-1.879l-8.414,1.362c-1.033,0.001-1.863,0.844-1.863,1.879v1.664c0,1.035,0.83,1.878,1.85,1.878
			l8.44,1.363c1.007-0.001,1.837-0.843,1.837-1.879V11.729z"/>
	</g>
	<g>
		<path fill="#BC2128" d="M2.424,29.323C1.085,29.323,0,28.224,0,26.869l0-2.094c0-1.354,1.085-2.454,2.424-2.454l10.606-1.714
			c1.338,0,2.424,1.099,2.424,2.454v5.523c0,1.354-1.086,2.454-2.424,2.454L2.424,29.323z"/>
	</g>
	<g>
		<path fill="#E3E418" d="M1.512,26.654v-1.663c0-1.115,0.898-2.022,2.002-2.022l8.414-1.361c1.116-0.001,2.014,0.907,2.014,2.021
			v4.387c0,1.114-0.898,2.021-2.002,2.021l-8.44-1.363C2.41,28.674,1.512,27.768,1.512,26.654z M13.791,23.628
			c0-1.036-0.83-1.879-1.85-1.879l-8.414,1.362c-1.033,0.001-1.863,0.843-1.863,1.879v1.663c0,1.035,0.83,1.878,1.85,1.878
			l8.44,1.363c1.007-0.001,1.837-0.843,1.837-1.88V23.628z"/>
	</g>
	<g>
		<path fill="#FFFFFF" d="M108.095,20.607h0.957c0.247,0.526,0.803,0.894,1.453,0.894c0.879,0,1.591-0.672,1.591-1.5
			c0-0.829-0.712-1.501-1.591-1.501c-0.65,0-1.205,0.369-1.453,0.894h-0.957c-0.248-0.526-0.803-0.894-1.453-0.894
			c-0.879,0-1.591,0.672-1.591,1.501c0,0.828,0.712,1.5,1.591,1.5C107.292,21.501,107.847,21.133,108.095,20.607z"/>
	</g>
	<g>
		<rect x="29.545" y="13.352" fill="#2A1C1F" width="1.326" height="2.857"/>
	</g>
	<g>
		<rect x="29.545" y="23.722" fill="#2A1C1F" width="1.326" height="2.858"/>
	</g>
	<g>
		<g>
			<polygon fill="#BD9B6C" points="47.045,5.957 31.793,9.78 31.793,29.712 47.045,34.106 50.852,34.354 59.469,28.618 
				61.995,16.209 59.469,10.565 53.813,6.147 49.925,5.886 			"/>
		</g>
		<g>
			<path fill="#8D633A" d="M31.49,29.924V9.559l15.547-3.888L49.916,5.6l4.015,0.27l5.789,4.52l2.59,5.788l-2.566,12.606
				l-8.806,5.862l-3.981-0.267L31.49,29.924z M32.096,9.999v19.503l15.005,4.323l3.664,0.238l8.43-5.612l2.485-12.209l-2.461-5.5
				l-5.524-4.314l-3.792-0.256l-2.813,0.071L32.096,9.999z"/>
		</g>
	</g>
	<g>
		<g>
			<polygon fill="#836339" points="35.761,8.707 39.683,7.648 58.106,7.648 60.379,8.707 			"/>
		</g>
		<g>
			<rect x="31.793" y="11.363" fill="#836339" width="32.906" height="1.059"/>
		</g>
		<g>
			<rect x="31.793" y="15.078" fill="#836339" width="32.906" height="1.06"/>
		</g>
		<g>
			<rect x="31.793" y="18.793" fill="#836339" width="32.906" height="1.06"/>
		</g>
		<g>
			<rect x="31.793" y="22.509" fill="#836339" width="32.906" height="1.059"/>
		</g>
		<g>
			<polygon fill="#836339" points="31.742,27.283 31.793,26.224 64.698,26.224 64.698,27.283 			"/>
		</g>
		<g>
			<polygon fill="#836339" points="35.761,30.999 32.537,29.939 64.698,29.939 60.379,30.999 			"/>
		</g>
	</g>
	<g>
		<path fill="#603C19" d="M47.045,5.66v28.694l7.879-0.497c0,0,5.757-6.967,5.959-7.104c0.202-0.137,2.021-5.611,2.021-5.611
			s-1.717-5.005-1.818-5.005c-0.101,0-2.851-5.43-3.294-5.573c-0.444-0.142-3.272-2.918-3.575-2.918S47.045,5.66,47.045,5.66z"/>
	</g>
	<g>
		<path fill="#2376BC" d="M47.045,5.66c0,0,10.808,3.428,11.01,15.05c0,0,0.403,9.664-11.01,13.644c0,0,10.246,3.314,17.699-4.213
			c0,0,7.755-7.621,1.089-18.575C65.833,11.566,60.682,2.23,47.045,5.66z"/>
	</g>
	<g>
		<g>
			<path fill="#412312" d="M41.288,19.138c-1.339,0-2.425-1.024-2.425-2.286v-4.787c0-1.263,1.085-2.286,2.425-2.286h2.727
				c1.339,0,2.424,1.023,2.424,2.286v4.787c0,1.262-1.085,2.286-2.424,2.286H41.288z"/>
		</g>
		<g>
			<path fill="#412312" d="M37.26,19.138c-0.536,0-0.972-0.405-0.972-0.905v-7.549c0-0.5,0.436-0.905,0.972-0.905l0,0
				c0.537,0,0.972,0.405,0.972,0.905v7.549C38.232,18.734,37.797,19.138,37.26,19.138L37.26,19.138z"/>
		</g>
	</g>
	<g>
		<g>
			<g>
				<path fill="#BC2128" d="M41.546,19.138c-1.339,0-2.424-1.024-2.424-2.286v-4.787c0-1.263,1.085-2.286,2.424-2.286h2.727
					c1.339,0,2.424,1.023,2.424,2.286v4.787c0,1.262-1.085,2.286-2.424,2.286H41.546z"/>
			</g>
		</g>
		<g>
			<g>
				<path fill="#BC2128" d="M37.518,19.138c-0.537,0-0.972-0.405-0.972-0.905v-7.549c0-0.5,0.436-0.905,0.972-0.905l0,0
					c0.537,0,0.972,0.405,0.972,0.905v7.549C38.491,18.734,38.056,19.138,37.518,19.138L37.518,19.138z"/>
			</g>
		</g>
	</g>
	<g>
		<g>
			<g>
				<path fill="#BC2128" d="M41.546,29.831c-1.339,0-2.424-1.024-2.424-2.286v-4.786c0-1.263,1.085-2.287,2.424-2.287h2.727
					c1.339,0,2.424,1.024,2.424,2.287v4.786c0,1.263-1.085,2.286-2.424,2.286H41.546z"/>
			</g>
		</g>
		<g>
			<g>
				<path fill="#BC2128" d="M37.518,29.831c-0.537,0-0.972-0.405-0.972-0.905v-7.548c0-0.5,0.436-0.906,0.972-0.906l0,0
					c0.537,0,0.972,0.406,0.972,0.906v7.548C38.491,29.426,38.056,29.831,37.518,29.831L37.518,29.831z"/>
			</g>
		</g>
	</g>
	<g>
		<g>
			<path fill="#BC2128" d="M20.606,9.375c-1.046,0-1.894-0.8-1.894-1.787l0,0c0-0.986,0.848-1.786,1.894-1.786h4.242
				c1.046,0,1.894,0.8,1.894,1.786l0,0c0,0.987-0.848,1.787-1.894,1.787H20.606z"/>
		</g>
		<g>
			<path fill="#412312" d="M22.261,8.189h0.856c0.221,0.47,0.717,0.799,1.298,0.799c0.785,0,1.42-0.6,1.42-1.34
				c0-0.739-0.636-1.34-1.42-1.34c-0.581,0-1.077,0.33-1.298,0.799h-0.856c-0.221-0.469-0.717-0.799-1.297-0.799
				c-0.785,0-1.42,0.601-1.42,1.34c0,0.74,0.635,1.34,1.42,1.34C21.545,8.988,22.041,8.659,22.261,8.189z"/>
		</g>
		<g>
			<path fill="#FFFFFF" d="M22.464,8.171h0.827c0.214,0.454,0.694,0.773,1.255,0.773c0.759,0,1.374-0.581,1.374-1.297
				c0-0.715-0.615-1.295-1.374-1.295c-0.561,0-1.041,0.318-1.255,0.772h-0.827c-0.214-0.454-0.693-0.772-1.255-0.772
				c-0.76,0-1.374,0.58-1.374,1.295c0,0.716,0.615,1.297,1.374,1.297C21.771,8.945,22.251,8.626,22.464,8.171z"/>
		</g>
	</g>
	<g>
		<g>
			<path fill="#BC2128" d="M20.606,34.332c-1.046,0-1.894-0.8-1.894-1.786l0,0c0-0.987,0.848-1.787,1.894-1.787h4.242
				c1.046,0,1.894,0.8,1.894,1.787l0,0c0,0.986-0.848,1.786-1.894,1.786H20.606z"/>
		</g>
		<g>
			<path fill="#412312" d="M22.261,33.147h0.856c0.221,0.47,0.717,0.799,1.298,0.799c0.785,0,1.42-0.599,1.42-1.34
				c0-0.74-0.636-1.341-1.42-1.341c-0.581,0-1.077,0.329-1.298,0.799h-0.856c-0.221-0.47-0.717-0.799-1.297-0.799
				c-0.785,0-1.42,0.6-1.42,1.341c0,0.74,0.635,1.34,1.42,1.34C21.545,33.946,22.041,33.618,22.261,33.147z"/>
		</g>
		<g>
			<path fill="#FFFFFF" d="M22.464,33.129h0.827c0.214,0.455,0.694,0.773,1.255,0.773c0.759,0,1.374-0.581,1.374-1.296
				c0-0.716-0.615-1.297-1.374-1.297c-0.561,0-1.041,0.319-1.255,0.773h-0.827c-0.214-0.454-0.693-0.773-1.255-0.773
				c-0.76,0-1.374,0.581-1.374,1.297c0,0.715,0.615,1.296,1.374,1.296C21.771,33.902,22.251,33.584,22.464,33.129z"/>
		</g>
	</g>
</g>
</svg>
