<?xml version="1.0" encoding="utf-8"?>
<!-- Generator: Adobe Illustrator 17.0.0, SVG Export Plug-In . SVG Version: 6.00 Build 0)  -->
<!DOCTYPE svg PUBLIC "-//W3C//DTD SVG 1.1//EN" "http://www.w3.org/Graphics/SVG/1.1/DTD/svg11.dtd">
<svg version="1.1" id="Layer_1" xmlns="http://www.w3.org/2000/svg" xmlns:xlink="http://www.w3.org/1999/xlink" x="0px" y="0px"
	 width="40px" height="120px" viewBox="0 0 40 120" enable-background="new 0 0 40 120" xml:space="preserve">
<g>
	<g>
		<path fill="#F9A147" d="M19.853,0c0,0-16.718,20.834-19.29,42.803c0,0-0.786,5.303-0.5,15.151
			c0.286,9.849,0.929,42.879,0.929,42.879s-0.714,7.651,5.645,9.318c0,0,8.002,0.53,13.217,0.303l12.503,0.057
			c0,0,6.073-0.814,6.573-6.42C39.43,98.485,40,46.688,40,46.688s-0.142-13.431-10.288-31.461C29.712,15.227,23.378,4.015,19.853,0z
			"/>
	</g>
	<g>
		<path fill="#412312" d="M29.712,99.999c0,1.381-1.071,2.501-2.393,2.501h-14.36c-1.322,0-2.393-1.12-2.393-2.501v-7.193
			c0-1.381,1.072-2.502,2.393-2.502h14.36c1.322,0,2.393,1.121,2.393,2.502V99.999z"/>
	</g>
	<g>
		<path fill="#BC2128" d="M38.438,51.136C36.151,20.834,20.001,4.47,20.001,4.47S3.849,20.834,1.563,51.136l1.143,46.174
			c0,0-0.737,8.158,7.074,8.823c0,0-3.143-0.679-4.502-5.3c0,0-0.715-2.879-0.499-9.243L4.135,50.834c0,0,1.278-16.574,8.823-27.078
			v31.5h4.965V18.62c0.662-0.486,1.352-0.931,2.077-1.322c0.656,0.354,1.284,0.749,1.888,1.182v36.775h4.965V23.501
			c7.71,10.488,9.012,27.333,9.012,27.333l-0.643,40.757c0.215,6.364-0.5,9.243-0.5,9.243c-1.358,4.621-4.502,5.3-4.502,5.3
			c7.81-0.665,7.074-8.823,7.074-8.823L38.438,51.136z"/>
	</g>
	<g>
		<path fill="#412312" d="M20.72,11.935v-1.016c0.625-0.262,1.063-0.852,1.063-1.542c0-0.932-0.799-1.688-1.782-1.688
			s-1.783,0.756-1.783,1.688c0,0.69,0.437,1.279,1.062,1.542v1.016c-0.624,0.263-1.062,0.852-1.062,1.541
			c0,0.933,0.799,1.688,1.783,1.688s1.782-0.755,1.782-1.688C21.783,12.786,21.345,12.197,20.72,11.935z"/>
	</g>
	<g>
		<path fill="#BC2128" d="M29.712,99.392c0,1.382-1.071,2.502-2.393,2.502h-14.36c-1.322,0-2.393-1.12-2.393-2.502v-7.193
			c0-1.382,1.072-2.502,2.393-2.502h14.36c1.322,0,2.393,1.12,2.393,2.502V99.392z"/>
	</g>
	<g>
		<rect x="17.924" y="99.773" fill="#2A1C1F" width="4.787" height="1.061"/>
	</g>
	<g>
		<rect x="12.958" y="101.894" fill="#BC2128" width="4.965" height="3.788"/>
	</g>
	<g>
		<rect x="12.958" y="87.803" fill="#BC2128" width="4.965" height="3.788"/>
	</g>
	<g>
		<rect x="22.353" y="87.803" fill="#BC2128" width="4.966" height="3.788"/>
	</g>
	<g>
		<rect x="22.187" y="101.894" fill="#BC2128" width="4.966" height="3.788"/>
	</g>
	<g>
		<path fill="#BC2128" d="M17.424,117.576c0,1.339-1.099,2.424-2.454,2.424h-2.094c-1.355,0-2.454-1.085-2.454-2.424L8.707,106.97
			c0-1.338,1.1-2.424,2.454-2.424h5.523c1.355,0,2.454,1.086,2.454,2.424L17.424,117.576z"/>
	</g>
	<g>
		<path fill="#E3E418" d="M14.755,118.488h-1.664c-1.114,0-2.021-0.898-2.021-2.002l-1.361-8.414
			c-0.001-1.116,0.906-2.014,2.02-2.014h4.388c1.114,0,2.022,0.898,2.022,2.002l-1.364,8.44
			C16.776,117.59,15.869,118.488,14.755,118.488z M11.729,106.209c-1.036,0-1.879,0.83-1.879,1.85l1.362,8.414
			c0.001,1.033,0.844,1.863,1.879,1.863h1.664c1.035,0,1.878-0.83,1.878-1.85l1.363-8.44c-0.001-1.007-0.843-1.837-1.879-1.837
			H11.729z"/>
	</g>
	<g>
		<path fill="#BC2128" d="M29.323,117.576c0,1.339-1.098,2.424-2.454,2.424h-2.094c-1.354,0-2.454-1.085-2.454-2.424l-1.714-10.606
			c0-1.338,1.099-2.424,2.454-2.424h5.523c1.354,0,2.454,1.086,2.454,2.424L29.323,117.576z"/>
	</g>
	<g>
		<path fill="#E3E418" d="M26.654,118.488h-1.663c-1.115,0-2.022-0.898-2.022-2.002l-1.361-8.414
			c-0.001-1.116,0.907-2.014,2.021-2.014h4.387c1.114,0,2.021,0.898,2.021,2.002l-1.363,8.44
			C28.674,117.59,27.768,118.488,26.654,118.488z M23.628,106.209c-1.036,0-1.879,0.83-1.879,1.85l1.362,8.414
			c0.001,1.033,0.843,1.863,1.879,1.863h1.663c1.035,0,1.878-0.83,1.878-1.85l1.363-8.44c-0.001-1.007-0.843-1.837-1.88-1.837
			H23.628z"/>
	</g>
	<g>
		<path fill="#FFFFFF" d="M20.607,11.905v-0.957c0.526-0.247,0.894-0.803,0.894-1.453c0-0.879-0.672-1.591-1.5-1.591
			c-0.829,0-1.501,0.712-1.501,1.591c0,0.65,0.369,1.205,0.894,1.453v0.957c-0.526,0.248-0.894,0.803-0.894,1.453
			c0,0.879,0.672,1.591,1.501,1.591c0.828,0,1.5-0.712,1.5-1.591C21.501,12.708,21.133,12.153,20.607,11.905z"/>
	</g>
	<g>
		<rect x="13.352" y="89.129" fill="#2A1C1F" width="2.857" height="1.326"/>
	</g>
	<g>
		<rect x="23.722" y="89.129" fill="#2A1C1F" width="2.858" height="1.326"/>
	</g>
	<g>
		<g>
			<polygon fill="#BD9B6C" points="5.957,72.955 9.78,88.207 29.712,88.207 34.106,72.955 34.354,69.148 28.618,60.531 
				16.209,58.005 10.565,60.531 6.147,66.187 5.886,70.076 			"/>
		</g>
		<g>
			<path fill="#8D633A" d="M29.924,88.51H9.559L5.671,72.963L5.6,70.084l0.27-4.015l4.52-5.789l5.788-2.59l12.606,2.566l5.862,8.806
				l-0.267,3.981L29.924,88.51z M9.999,87.904h19.503l4.323-15.005l0.238-3.664l-5.612-8.43L16.241,58.32l-5.5,2.461l-4.314,5.524
				l-0.256,3.792l0.071,2.813L9.999,87.904z"/>
		</g>
	</g>
	<g>
		<g>
			<polygon fill="#836339" points="8.707,84.239 7.648,80.317 7.648,61.894 8.707,59.621 			"/>
		</g>
		<g>
			<rect x="11.363" y="55.302" fill="#836339" width="1.059" height="32.906"/>
		</g>
		<g>
			<rect x="15.078" y="55.302" fill="#836339" width="1.06" height="32.906"/>
		</g>
		<g>
			<rect x="18.793" y="55.302" fill="#836339" width="1.06" height="32.906"/>
		</g>
		<g>
			<rect x="22.509" y="55.302" fill="#836339" width="1.059" height="32.906"/>
		</g>
		<g>
			<polygon fill="#836339" points="27.283,88.258 26.224,88.207 26.224,55.302 27.283,55.302 			"/>
		</g>
		<g>
			<polygon fill="#836339" points="30.999,84.239 29.939,87.463 29.939,55.302 30.999,59.621 			"/>
		</g>
	</g>
	<g>
		<path fill="#603C19" d="M5.66,72.955h28.694l-0.497-7.879c0,0-6.967-5.757-7.104-5.959c-0.137-0.202-5.611-2.021-5.611-2.021
			s-5.005,1.717-5.005,1.818c0,0.101-5.43,2.851-5.573,3.294c-0.142,0.444-2.918,3.272-2.918,3.575S5.66,72.955,5.66,72.955z"/>
	</g>
	<g>
		<path fill="#2376BC" d="M5.66,72.955c0,0,3.428-10.808,15.05-11.01c0,0,9.664-0.403,13.644,11.01c0,0,3.314-10.246-4.213-17.699
			c0,0-7.621-7.755-18.575-1.089C11.566,54.167,2.23,59.318,5.66,72.955z"/>
	</g>
	<g>
		<g>
			<path fill="#412312" d="M19.138,78.712c0,1.339-1.024,2.425-2.286,2.425h-4.787c-1.263,0-2.286-1.085-2.286-2.425v-2.727
				c0-1.339,1.023-2.424,2.286-2.424h4.787c1.262,0,2.286,1.085,2.286,2.424V78.712z"/>
		</g>
		<g>
			<path fill="#412312" d="M19.138,82.74c0,0.536-0.405,0.972-0.905,0.972h-7.549c-0.5,0-0.905-0.436-0.905-0.972l0,0
				c0-0.537,0.405-0.972,0.905-0.972h7.549C18.734,81.768,19.138,82.203,19.138,82.74L19.138,82.74z"/>
		</g>
	</g>
	<g>
		<g>
			<g>
				<path fill="#BC2128" d="M19.138,78.454c0,1.339-1.024,2.424-2.286,2.424h-4.787c-1.263,0-2.286-1.085-2.286-2.424v-2.727
					c0-1.339,1.023-2.424,2.286-2.424h4.787c1.262,0,2.286,1.085,2.286,2.424V78.454z"/>
			</g>
		</g>
		<g>
			<g>
				<path fill="#BC2128" d="M19.138,82.482c0,0.537-0.405,0.972-0.905,0.972h-7.549c-0.5,0-0.905-0.436-0.905-0.972l0,0
					c0-0.537,0.405-0.972,0.905-0.972h7.549C18.734,81.509,19.138,81.944,19.138,82.482L19.138,82.482z"/>
			</g>
		</g>
	</g>
	<g>
		<g>
			<g>
				<path fill="#BC2128" d="M29.831,78.454c0,1.339-1.024,2.424-2.286,2.424h-4.786c-1.263,0-2.287-1.085-2.287-2.424v-2.727
					c0-1.339,1.024-2.424,2.287-2.424h4.786c1.263,0,2.286,1.085,2.286,2.424V78.454z"/>
			</g>
		</g>
		<g>
			<g>
				<path fill="#BC2128" d="M29.831,82.482c0,0.537-0.405,0.972-0.905,0.972h-7.548c-0.5,0-0.906-0.436-0.906-0.972l0,0
					c0-0.537,0.406-0.972,0.906-0.972h7.548C29.426,81.509,29.831,81.944,29.831,82.482L29.831,82.482z"/>
			</g>
		</g>
	</g>
	<g>
		<g>
			<path fill="#BC2128" d="M9.375,99.394c0,1.046-0.8,1.894-1.787,1.894l0,0c-0.986,0-1.786-0.848-1.786-1.894v-4.242
				c0-1.046,0.8-1.894,1.786-1.894l0,0c0.987,0,1.787,0.848,1.787,1.894V99.394z"/>
		</g>
		<g>
			<path fill="#412312" d="M8.189,97.739v-0.856c0.47-0.221,0.799-0.717,0.799-1.298c0-0.785-0.6-1.42-1.34-1.42
				c-0.739,0-1.34,0.636-1.34,1.42c0,0.581,0.33,1.077,0.799,1.298v0.856c-0.469,0.221-0.799,0.717-0.799,1.297
				c0,0.785,0.601,1.42,1.34,1.42c0.74,0,1.34-0.635,1.34-1.42C8.988,98.455,8.659,97.959,8.189,97.739z"/>
		</g>
		<g>
			<path fill="#FFFFFF" d="M8.171,97.536v-0.827c0.454-0.214,0.773-0.694,0.773-1.255c0-0.759-0.581-1.374-1.297-1.374
				c-0.715,0-1.295,0.615-1.295,1.374c0,0.561,0.318,1.041,0.772,1.255v0.827c-0.454,0.214-0.772,0.693-0.772,1.255
				c0,0.76,0.58,1.374,1.295,1.374c0.716,0,1.297-0.615,1.297-1.374C8.945,98.229,8.626,97.749,8.171,97.536z"/>
		</g>
	</g>
	<g>
		<g>
			<path fill="#BC2128" d="M34.332,99.394c0,1.046-0.8,1.894-1.786,1.894l0,0c-0.987,0-1.787-0.848-1.787-1.894v-4.242
				c0-1.046,0.8-1.894,1.787-1.894l0,0c0.986,0,1.786,0.848,1.786,1.894V99.394z"/>
		</g>
		<g>
			<path fill="#412312" d="M33.147,97.739v-0.856c0.47-0.221,0.799-0.717,0.799-1.298c0-0.785-0.599-1.42-1.34-1.42
				c-0.74,0-1.341,0.636-1.341,1.42c0,0.581,0.329,1.077,0.799,1.298v0.856c-0.47,0.221-0.799,0.717-0.799,1.297
				c0,0.785,0.6,1.42,1.341,1.42c0.74,0,1.34-0.635,1.34-1.42C33.946,98.455,33.618,97.959,33.147,97.739z"/>
		</g>
		<g>
			<path fill="#FFFFFF" d="M33.129,97.536v-0.827c0.455-0.214,0.773-0.694,0.773-1.255c0-0.759-0.581-1.374-1.296-1.374
				c-0.716,0-1.297,0.615-1.297,1.374c0,0.561,0.319,1.041,0.773,1.255v0.827c-0.454,0.214-0.773,0.693-0.773,1.255
				c0,0.76,0.581,1.374,1.297,1.374c0.715,0,1.296-0.615,1.296-1.374C33.902,98.229,33.584,97.749,33.129,97.536z"/>
		</g>
	</g>
</g>
</svg>
