<?xml version="1.0" encoding="UTF-8"?>
<svg viewBox="0 0 640 480" xmlns="http://www.w3.org/2000/svg">
 <g fill="#007fff">
  <path transform="rotate(-83.228 201.93 230.95)" d="m243.23 124.69c-18.112-7.7104-63.442 0.078766-46.883 62.496 29.097 109.67-65.75 148.66-60.615 152.42 2.5076 1.8322 100.42-35.632 126.99-128.21 11.945-41.627 4.4432-76.513-19.49-86.702z" opacity=".771"/>
  <path transform="rotate(112.8 201.19 326.47)" d="m216.09 485.03c24.936-5.1176 72.399-47.814 19.047-104.23-93.745-99.127-6.9583-213.5-14.892-213.78-3.8745-0.13522-95.006 114.86-74.253 237 9.3313 54.918 37.148 87.768 70.099 81.006z" opacity=".721"/>
  <path transform="rotate(210.63 421.94 183.24)" d="m405.84 375.65c-26.94-6.21-78.217-58.02-20.578-126.48 101.28-120.29 7.5175-259.08 16.089-259.41 4.1858-0.16408 102.64 139.38 80.22 287.59-10.081 66.64-40.133 106.5-75.732 98.297z" opacity=".721"/>
  <path transform="rotate(222.47 455.26 269.16)" d="m440.59 434.23c-24.547-5.3273-71.268-49.775-18.75-108.5 92.28-103.19 6.849-222.25 14.66-222.54 3.8136-0.14004 93.522 119.57 73.093 246.72-9.1857 57.169-36.567 91.366-69.003 84.327z" opacity=".721"/>
  <path transform="rotate(152.77 253.26 173.82)" d="m268.32 352.12c25.2-5.7545 73.167-53.765 19.249-117.2-94.739-111.46-7.0321-240.07-15.05-240.39-3.9156-0.15202-96.014 129.16-75.041 266.5 9.4301 61.753 37.542 98.692 70.842 91.088z" opacity=".721"/>
  <path transform="rotate(254.02 442.36 365.39)" d="m430.27 415.29c-20.229-1.6106-58.734-15.048-15.452-32.803 76.051-31.197 5.645-67.193 12.082-67.28 3.1431-0.042542 77.074 36.15 60.238 74.588-7.5701 17.284-30.136 27.622-56.868 25.494z" opacity=".721"/>
 </g>
</svg>
