<?xml version="1.0" encoding="utf-8"?>
<!-- Generator: Adobe Illustrator 17.0.0, SVG Export Plug-In . SVG Version: 6.00 Build 0)  -->
<!DOCTYPE svg PUBLIC "-//W3C//DTD SVG 1.1//EN" "http://www.w3.org/Graphics/SVG/1.1/DTD/svg11.dtd">
<svg version="1.1" id="Layer_1" xmlns="http://www.w3.org/2000/svg" xmlns:xlink="http://www.w3.org/1999/xlink" x="0px" y="0px"
	 width="160px" height="40px" viewBox="0 0 160 40" enable-background="new 0 0 160 40" xml:space="preserve">
<g>
	<path fill="#8E5F3F" d="M0,19.755c0,0,0,3.278,0,8.452c0,5.175,3.262,8.108,5.871,8.798c2.61,0.69,23.813,2.933,23.813,2.933
		s62.794,0.172,80.408-0.058c17.615-0.23,32.185-3.45,41.101-8.28C160.109,26.77,160,19.755,160,19.755v0.489
		c0,0,0.109-7.015-8.807-11.845c-8.917-4.83-23.487-8.05-41.101-8.28C92.478-0.11,29.684,0.062,29.684,0.062
		S8.481,2.305,5.871,2.995C3.262,3.685,0,6.618,0,11.792c0,5.175,0,8.452,0,8.452"/>
	<path fill="#FFFFFF" d="M157.88,20.231c0,0,0.105-6.651-8.552-11.232c-8.657-4.579-22.804-7.633-39.907-7.852
		C92.318,0.931,31.35,1.093,31.35,1.093S10.763,3.22,8.229,3.874c-2.534,0.654-5.701,3.435-5.701,8.342c0,4.907,0,8.015,0,8.015"/>
	<path fill="#FFFFFF" d="M157.88,19.768c0,0,0.105,6.652-8.552,11.231c-8.657,4.581-22.804,7.634-39.907,7.852
		c-17.103,0.218-78.071,0.054-78.071,0.054s-20.587-2.126-23.121-2.78c-2.534-0.655-5.701-3.435-5.701-8.343
		c0-4.907,0-8.015,0-8.015"/>
	<path fill="#B65F27" d="M10.505,28.544l0.369,0.501l0.525-0.433l1.92,2.606l-0.476,0.393l0.369,0.501
		c0.559,0.76,1.536,0.945,2.179,0.415c0.645-0.531,0.712-1.577,0.153-2.336l-0.369-0.501l-0.477,0.392l-1.92-2.606l0.427-0.352
		l-0.369-0.502c-0.559-0.759-1.535-0.944-2.179-0.414C10.013,26.738,9.945,27.784,10.505,28.544z"/>
	<path fill="#B65F27" d="M12.246,12.827l0.474-0.391l-0.409-0.555l2.463-2.031l0.371,0.503l0.474-0.391
		c0.719-0.591,0.894-1.624,0.392-2.304c-0.502-0.682-1.491-0.754-2.209-0.162l-0.473,0.39l0.371,0.504l-2.464,2.03L10.902,9.97
		l-0.474,0.39c-0.718,0.591-0.893,1.624-0.392,2.305C10.539,13.346,11.528,13.418,12.246,12.827z"/>
	<path fill="#B65F27" d="M147.143,21.809l0.6,0.01l0.01-0.705l3.123,0.046l-0.008,0.638l0.601,0.009
		c0.91,0.014,1.657-0.676,1.669-1.539c0.012-0.864-0.718-1.575-1.627-1.588l-0.601-0.009l-0.008,0.639l-3.123-0.046l0.008-0.573
		l-0.601-0.009c-0.909-0.014-1.657,0.676-1.668,1.539C145.504,21.085,146.232,21.795,147.143,21.809z"/>
	<path fill="#183653" d="M129.495,10.692l1.265,0.071c0.013,0.004,0.028,0.002,0.044-0.004c0.034-0.014,0.054-0.046,0.044-0.072
		c0,0,0-0.001,0-0.001l-0.143-0.41c0.388-0.07,0.814,0.006,1.158,0.164c0.549,0.251,0.967,0.738,1.285,1.26
		c0.101,0.166,0.23,0.357,0.281,0.548l-3.511,3.7l-0.456-0.484l0.098-0.104c0.022-0.022,0.03-0.055,0.022-0.085
		c-0.003-0.016-0.011-0.029-0.022-0.04c-0.01-0.012-0.023-0.019-0.038-0.023l-0.755-0.215c-0.029-0.009-0.06,0-0.082,0.023
		c-0.021,0.022-0.029,0.055-0.021,0.085l0.202,0.798c0.008,0.032,0.03,0.055,0.059,0.063c0.029,0.008,0.06,0,0.081-0.023
		l0.098-0.104l0.456,0.485l-0.695,0.732c-0.317-0.109-0.679-0.031-0.93,0.234c-0.358,0.378-0.36,0.994-0.002,1.373
		c0.357,0.379,0.939,0.381,1.297,0.003c0.263-0.277,0.333-0.683,0.21-1.03l0.68-0.717l0.485,0.515l-0.098,0.103
		c-0.021,0.022-0.03,0.056-0.022,0.086c0.007,0.031,0.03,0.055,0.059,0.063l0.755,0.216c0.029,0.008,0.06,0,0.081-0.023
		c0.021-0.022,0.029-0.055,0.022-0.086l-0.201-0.799c-0.004-0.016-0.011-0.029-0.022-0.04c-0.011-0.01-0.023-0.018-0.038-0.022
		c-0.029-0.009-0.06,0-0.081,0.022l-0.099,0.104l-0.486-0.516l3.488-3.673c0.097-0.01,0.206,0.079,0.288,0.126
		c0.096,0.056,0.19,0.116,0.282,0.179c0.284,0.191,0.546,0.418,0.771,0.683c0.439,0.519,0.669,1.219,0.558,1.903l-0.379-0.15
		c0,0,0,0,0,0c-0.026-0.011-0.056,0.01-0.069,0.046c-0.006,0.016-0.007,0.033-0.004,0.047l0.062,1.338
		c0.002,0.046,0.049,0.065,0.079,0.031l0.886-0.973c0.015-0.016,0.024-0.041,0.023-0.065c-0.002-0.023-0.012-0.042-0.029-0.048
		l-0.337-0.133c1.054-1.49-0.984-3.383-0.731-4.947c0.004-0.024-0.016-0.043-0.036-0.039c0.004-0.021-0.014-0.04-0.036-0.037
		c-1.48,0.261-3.262-1.902-4.674-0.792l-0.125-0.357c-0.006-0.017-0.023-0.028-0.045-0.03c-0.022-0.001-0.046,0.009-0.062,0.024
		l-0.923,0.934C129.434,10.641,129.451,10.69,129.495,10.692z M129.013,18.436c-0.238,0.251-0.625,0.251-0.862-0.002
		c-0.238-0.252-0.237-0.661,0.001-0.913c0.238-0.251,0.625-0.251,0.863,0.001C129.252,17.775,129.251,18.184,129.013,18.436z"/>
	<path fill="#183653" d="M135.475,23.959l-0.067,1.338c-0.003,0.014-0.002,0.03,0.003,0.046c0.013,0.036,0.043,0.056,0.068,0.046
		c0,0,0,0,0.001,0l0.388-0.153c0.066,0.411-0.005,0.862-0.155,1.225c-0.238,0.581-0.697,1.023-1.191,1.359
		c-0.157,0.106-0.338,0.243-0.518,0.297l-3.498-3.713l0.458-0.482l0.099,0.104c0.021,0.021,0.052,0.031,0.081,0.022
		c0.014-0.004,0.027-0.012,0.038-0.022c0.01-0.011,0.018-0.025,0.021-0.04l0.204-0.798c0.008-0.03,0-0.063-0.022-0.086
		c-0.021-0.022-0.051-0.031-0.081-0.022l-0.755,0.213c-0.029,0.008-0.052,0.031-0.059,0.062c-0.008,0.031,0,0.063,0.021,0.086
		l0.098,0.104l-0.458,0.482l-0.692-0.735c0.102-0.335,0.029-0.718-0.222-0.985c-0.357-0.379-0.94-0.379-1.298-0.002
		c-0.358,0.377-0.359,0.993-0.002,1.372c0.262,0.279,0.646,0.352,0.974,0.222l0.678,0.72l-0.487,0.513l-0.098-0.103
		c-0.021-0.022-0.051-0.032-0.081-0.023c-0.029,0.008-0.052,0.032-0.06,0.062l-0.204,0.798c-0.008,0.031,0,0.064,0.022,0.087
		c0.021,0.022,0.053,0.031,0.081,0.023l0.755-0.212c0.014-0.005,0.027-0.012,0.038-0.023c0.01-0.011,0.018-0.025,0.021-0.04
		c0.008-0.031,0-0.064-0.021-0.086l-0.098-0.104l0.488-0.513l3.473,3.688c0.009,0.104-0.074,0.219-0.119,0.305
		c-0.054,0.102-0.11,0.201-0.169,0.299c-0.18,0.3-0.395,0.577-0.645,0.815c-0.491,0.465-1.154,0.707-1.8,0.59l0.142-0.4l0.001,0
		c0.009-0.027-0.01-0.06-0.045-0.073c-0.015-0.006-0.03-0.007-0.043-0.004l-1.265,0.066c-0.044,0.003-0.061,0.052-0.03,0.084
		l0.921,0.937c0.015,0.016,0.039,0.025,0.061,0.023c0.022-0.001,0.039-0.012,0.045-0.029l0.127-0.357
		c1.408,1.115,3.198-1.04,4.677-0.774c0.022,0.004,0.041-0.017,0.037-0.037c0.019,0.004,0.039-0.015,0.035-0.038
		c-0.246-1.566,1.798-3.45,0.749-4.944l0.337-0.132c0.017-0.007,0.027-0.025,0.029-0.048c0.001-0.023-0.008-0.048-0.023-0.065
		l-0.883-0.976C135.523,23.894,135.477,23.912,135.475,23.959z M128.153,23.449c-0.238-0.252-0.237-0.662,0.002-0.913
		c0.238-0.251,0.625-0.251,0.863,0.002c0.238,0.251,0.237,0.661-0.002,0.913C128.778,23.702,128.391,23.701,128.153,23.449z"/>
	<path fill="#ED2224" d="M102.752,37.321c-1.441,0-2.609-1.261-2.609-2.816V5.811c0-1.555,1.168-2.816,2.609-2.816h17.452
		c1.441,0,2.61,1.261,2.61,2.816v28.694c0,1.555-1.169,2.816-2.61,2.816H102.752z"/>
	<path fill="#ED2224" d="M78.07,37.321c-1.442,0-2.61-1.261-2.61-2.816V5.811c0-1.555,1.168-2.816,2.61-2.816l17.451,0
		c1.442,0,2.61,1.261,2.61,2.816v28.694c0,1.555-1.168,2.816-2.61,2.816H78.07z"/>
	<path fill="#ED2224" d="M53.496,37.321c-1.441,0-2.609-1.261-2.609-2.816V5.811c0-1.555,1.168-2.816,2.609-2.816h17.451
		c1.442,0,2.61,1.261,2.61,2.816v28.694c0,1.555-1.169,2.816-2.61,2.816H53.496z"/>
	<path fill="#B65F27" d="M45.463,19.861C45.88,7.351,42.049,5.5,42.049,5.5h-1.832v3.965L31.47,9.288V6.469
		c0,0-2.832-0.616-2.582,5.022l-4.706,0.088c0,0-2.624,0.088-2.874,3.083v9.603c0,0,0.084,2.819,2.166,3.347h5.332
		c0,0-0.667,3.613,2.582,5.11l-0.083-2.996l8.913-0.066v0.5v3.964h1.832c0,0,3.832-1.85,3.415-14.36"/>
	<g>
		<path fill="#ED2224" d="M14.726,24.618h2.916c1.104,0,1.999-0.947,1.999-2.114v-5.463c0-1.168-0.895-2.114-1.999-2.114h-2.916
			V24.618z"/>
		<path fill="#ED2224" d="M14.144,14.927h-3.499c-1.104,0-1.999,0.946-1.999,2.114v5.463c0,1.167,0.896,2.114,1.999,2.114h3.499
			V14.927z"/>
	</g>
	<ellipse fill="none" cx="27.305" cy="19.773" rx="2.833" ry="2.995"/>
	<path fill="#ED2224" d="M33.052,8.672c-0.597,0-1.083-0.513-1.083-1.145l0,0c0-0.632,0.486-1.145,1.083-1.145h5.332
		c0.598,0,1.083,0.513,1.083,1.145l0,0c0,0.632-0.485,1.145-1.083,1.145H33.052z"/>
	<path fill="#ED2224" d="M32.636,32.988c-0.598,0-1.083-0.513-1.083-1.145l0,0c0-0.633,0.485-1.145,1.083-1.145h5.332
		c0.597,0,1.082,0.513,1.082,1.145l0,0c0,0.632-0.485,1.145-1.082,1.145H32.636z"/>
	<g>
		<path fill="#B65F27" d="M71.129,19.779V8.921c0-1.272-0.975-2.304-2.18-2.304H55.331c-1.203,0-2.18,1.032-2.18,2.304v10.857
			H71.129z"/>
		<path fill="#B65F27" d="M71.129,32.257V21.193H53.151v11.064c0,1.272,0.976,2.304,2.18,2.304H68.95
			C70.154,34.562,71.129,33.529,71.129,32.257z"/>
	</g>
	<g>
		<path fill="#B65F27" d="M95.703,19.779V8.921c0-1.272-0.975-2.304-2.179-2.304h-13.62c-1.204,0-2.179,1.032-2.179,2.304v10.857
			H95.703z"/>
		<path fill="#B65F27" d="M95.703,32.257V21.193H77.725v11.064c0,1.272,0.975,2.304,2.179,2.304h13.62
			C94.728,34.562,95.703,33.529,95.703,32.257z"/>
	</g>
	<g>
		<path fill="#B65F27" d="M120.386,19.779V8.921c0-1.272-0.976-2.304-2.18-2.304h-13.619c-1.203,0-2.179,1.032-2.179,2.304v10.857
			H120.386z"/>
		<path fill="#B65F27" d="M120.386,32.257V21.193h-17.978v11.064c0,1.272,0.976,2.304,2.179,2.304h13.619
			C119.41,34.562,120.386,33.529,120.386,32.257z"/>
	</g>
</g>
</svg>
