<?xml version="1.0" encoding="utf-8"?>
<!-- Generator: Adobe Illustrator 17.0.0, SVG Export Plug-In . SVG Version: 6.00 Build 0)  -->
<!DOCTYPE svg PUBLIC "-//W3C//DTD SVG 1.1//EN" "http://www.w3.org/Graphics/SVG/1.1/DTD/svg11.dtd">
<svg version="1.1" id="Layer_1" xmlns="http://www.w3.org/2000/svg" xmlns:xlink="http://www.w3.org/1999/xlink" x="0px" y="0px"
	 width="40px" height="160px" viewBox="0 0 40 160" enable-background="new 0 0 40 160" xml:space="preserve">
<g>
	<path fill="#8E5F3F" d="M19.755,160c0,0,3.278,0,8.452,0c5.175,0,8.108-3.262,8.798-5.871c0.69-2.61,2.933-23.813,2.933-23.813
		s0.172-62.794-0.058-80.408c-0.23-17.614-3.45-32.185-8.28-41.101C26.77-0.109,19.755,0,19.755,0h0.489
		c0,0-7.015-0.109-11.845,8.807c-4.83,8.917-8.05,23.487-8.28,41.101c-0.23,17.614-0.058,80.408-0.058,80.408
		s2.243,21.203,2.933,23.813c0.69,2.609,3.623,5.871,8.797,5.871c5.175,0,8.452,0,8.452,0"/>
	<path fill="#FFFFFF" d="M20.231,2.12c0,0-6.651-0.105-11.232,8.552C4.42,19.329,1.367,33.476,1.148,50.579
		C0.931,67.682,1.093,128.65,1.093,128.65s2.127,20.587,2.781,23.121c0.654,2.534,3.435,5.701,8.342,5.701c4.907,0,8.015,0,8.015,0"
		/>
	<path fill="#FFFFFF" d="M19.768,2.12c0,0,6.652-0.105,11.231,8.552c4.581,8.657,7.634,22.804,7.852,39.907
		c0.218,17.103,0.054,78.071,0.054,78.071s-2.126,20.587-2.78,23.121c-0.655,2.534-3.435,5.701-8.343,5.701
		c-4.907,0-8.015,0-8.015,0"/>
	<path fill="#B65F27" d="M28.544,149.495l0.501-0.369l-0.433-0.525l2.606-1.92l0.393,0.476l0.501-0.369
		c0.76-0.559,0.945-1.536,0.415-2.179c-0.531-0.645-1.577-0.712-2.336-0.153l-0.501,0.369l0.392,0.477l-2.606,1.92l-0.352-0.427
		l-0.502,0.369c-0.759,0.559-0.944,1.535-0.414,2.179C26.738,149.987,27.784,150.055,28.544,149.495z"/>
	<path fill="#B65F27" d="M12.827,147.754l-0.391-0.474l-0.555,0.409l-2.031-2.463l0.503-0.371l-0.391-0.474
		c-0.591-0.719-1.624-0.894-2.304-0.392c-0.682,0.502-0.754,1.491-0.162,2.209l0.39,0.473l0.504-0.371l2.03,2.464l-0.452,0.333
		l0.39,0.474c0.591,0.718,1.624,0.893,2.305,0.392C13.346,149.461,13.418,148.472,12.827,147.754z"/>
	<path fill="#B65F27" d="M21.809,12.857l0.01-0.6l-0.705-0.009l0.046-3.123l0.638,0.008l0.009-0.601
		c0.014-0.91-0.676-1.657-1.539-1.669C19.404,6.851,18.693,7.58,18.68,8.49l-0.009,0.601l0.639,0.008l-0.046,3.123l-0.573-0.008
		l-0.009,0.601c-0.014,0.909,0.676,1.657,1.539,1.668C21.085,14.496,21.795,13.768,21.809,12.857z"/>
	<path fill="#183653" d="M10.692,30.505l0.071-1.265c0.004-0.013,0.002-0.028-0.004-0.044c-0.014-0.034-0.046-0.054-0.072-0.044
		c0,0-0.001,0-0.001,0l-0.41,0.143c-0.07-0.388,0.006-0.814,0.164-1.158c0.251-0.549,0.738-0.967,1.26-1.285
		c0.166-0.101,0.357-0.23,0.548-0.281l3.7,3.511l-0.484,0.456L15.36,30.44c-0.022-0.022-0.055-0.03-0.085-0.022
		c-0.016,0.003-0.029,0.011-0.04,0.022c-0.012,0.01-0.019,0.023-0.023,0.038l-0.215,0.755c-0.009,0.029,0,0.06,0.023,0.082
		c0.022,0.021,0.055,0.029,0.085,0.021l0.798-0.202c0.032-0.008,0.055-0.03,0.063-0.059c0.008-0.029,0-0.06-0.023-0.081
		l-0.104-0.098l0.485-0.456l0.732,0.695c-0.109,0.317-0.031,0.679,0.234,0.93c0.378,0.358,0.994,0.36,1.373,0.002
		c0.379-0.357,0.381-0.939,0.003-1.297c-0.277-0.263-0.683-0.333-1.03-0.211l-0.717-0.68l0.515-0.485l0.103,0.098
		c0.022,0.021,0.056,0.03,0.086,0.022c0.031-0.007,0.055-0.03,0.063-0.059l0.216-0.755c0.008-0.029,0-0.06-0.023-0.081
		c-0.022-0.021-0.055-0.029-0.086-0.022l-0.799,0.201c-0.016,0.004-0.029,0.011-0.04,0.022c-0.01,0.011-0.018,0.023-0.022,0.038
		c-0.009,0.029,0,0.06,0.022,0.081l0.104,0.099l-0.516,0.486l-3.673-3.488c-0.01-0.097,0.079-0.206,0.126-0.288
		c0.056-0.096,0.116-0.19,0.179-0.282c0.191-0.284,0.418-0.546,0.683-0.771c0.519-0.439,1.219-0.669,1.903-0.558l-0.15,0.379
		c0,0,0,0,0,0c-0.011,0.026,0.01,0.056,0.046,0.069c0.016,0.006,0.033,0.007,0.047,0.004l1.338-0.062
		c0.046-0.002,0.065-0.049,0.031-0.079l-0.973-0.886c-0.016-0.015-0.041-0.024-0.065-0.023c-0.023,0.002-0.042,0.012-0.048,0.029
		l-0.133,0.337c-1.49-1.054-3.383,0.984-4.947,0.731c-0.024-0.004-0.043,0.016-0.039,0.036c-0.021-0.004-0.04,0.014-0.037,0.036
		c0.261,1.48-1.902,3.262-0.792,4.674l-0.357,0.125c-0.017,0.006-0.028,0.023-0.03,0.045c-0.001,0.022,0.009,0.046,0.024,0.062
		l0.934,0.923C10.641,30.566,10.69,30.549,10.692,30.505z M18.436,30.987c0.251,0.238,0.251,0.625-0.002,0.862
		c-0.252,0.238-0.661,0.237-0.913-0.001c-0.251-0.238-0.251-0.625,0.001-0.863C17.775,30.748,18.184,30.749,18.436,30.987z"/>
	<path fill="#183653" d="M23.959,24.525l1.338,0.067c0.014,0.003,0.03,0.002,0.046-0.003c0.036-0.013,0.056-0.043,0.046-0.068
		c0,0,0,0,0-0.001l-0.153-0.388c0.411-0.066,0.862,0.005,1.225,0.155c0.581,0.238,1.023,0.697,1.359,1.191
		c0.106,0.157,0.243,0.338,0.297,0.518l-3.713,3.498l-0.482-0.458l0.104-0.099c0.021-0.021,0.031-0.052,0.022-0.081
		c-0.004-0.014-0.012-0.027-0.022-0.038c-0.011-0.01-0.025-0.018-0.04-0.021l-0.798-0.204c-0.03-0.008-0.063,0-0.086,0.022
		c-0.022,0.021-0.031,0.051-0.022,0.081l0.213,0.755c0.008,0.029,0.031,0.052,0.062,0.059c0.031,0.008,0.063,0,0.086-0.021
		l0.104-0.098l0.482,0.458l-0.735,0.692c-0.335-0.102-0.718-0.029-0.985,0.222c-0.379,0.357-0.379,0.94-0.002,1.298
		c0.377,0.358,0.993,0.359,1.372,0.002c0.279-0.262,0.352-0.646,0.222-0.974l0.72-0.678l0.513,0.487l-0.103,0.098
		c-0.022,0.021-0.032,0.051-0.023,0.081c0.008,0.029,0.032,0.052,0.062,0.06l0.798,0.204c0.031,0.008,0.064,0,0.087-0.022
		c0.022-0.021,0.031-0.053,0.023-0.081l-0.212-0.755c-0.005-0.014-0.012-0.027-0.023-0.038c-0.011-0.01-0.025-0.018-0.04-0.021
		c-0.031-0.008-0.064,0-0.086,0.021l-0.104,0.098l-0.513-0.488l3.688-3.473c0.104-0.009,0.219,0.074,0.305,0.119
		c0.102,0.054,0.201,0.11,0.299,0.169c0.3,0.18,0.577,0.395,0.815,0.645c0.465,0.491,0.707,1.154,0.59,1.8l-0.4-0.142l0-0.001
		c-0.027-0.009-0.06,0.01-0.073,0.045c-0.006,0.015-0.007,0.03-0.004,0.043l0.066,1.265c0.003,0.044,0.052,0.061,0.084,0.03
		l0.937-0.921c0.016-0.015,0.025-0.039,0.023-0.061c-0.001-0.022-0.012-0.039-0.029-0.045l-0.357-0.127
		c1.115-1.408-1.04-3.198-0.774-4.677c0.004-0.022-0.017-0.041-0.037-0.037c0.004-0.019-0.015-0.039-0.038-0.035
		c-1.566,0.246-3.45-1.798-4.944-0.749l-0.132-0.337c-0.007-0.017-0.025-0.027-0.048-0.029c-0.023-0.001-0.048,0.008-0.065,0.023
		l-0.976,0.883C23.894,24.477,23.912,24.523,23.959,24.525z M23.449,31.847c-0.252,0.238-0.662,0.237-0.913-0.002
		c-0.251-0.238-0.251-0.625,0.002-0.863c0.251-0.238,0.661-0.237,0.913,0.002C23.702,31.222,23.701,31.609,23.449,31.847z"/>
	<path fill="#ED2224" d="M37.321,57.248c0,1.441-1.261,2.609-2.816,2.609H5.811c-1.555,0-2.816-1.168-2.816-2.609V39.796
		c0-1.441,1.261-2.61,2.816-2.61h28.694c1.555,0,2.816,1.169,2.816,2.61V57.248z"/>
	<path fill="#ED2224" d="M37.321,81.93c0,1.442-1.261,2.61-2.816,2.61H5.811c-1.555,0-2.816-1.168-2.816-2.61V64.479
		c0-1.442,1.261-2.61,2.816-2.61h28.694c1.555,0,2.816,1.168,2.816,2.61V81.93z"/>
	<path fill="#ED2224" d="M37.321,106.504c0,1.441-1.261,2.609-2.816,2.609H5.811c-1.555,0-2.816-1.168-2.816-2.609V89.053
		c0-1.442,1.261-2.61,2.816-2.61h28.694c1.555,0,2.816,1.169,2.816,2.61V106.504z"/>
	<path fill="#B65F27" d="M19.861,114.537C7.351,114.12,5.5,117.951,5.5,117.951v1.832h3.965l-0.176,8.747H6.469
		c0,0-0.616,2.832,5.022,2.582l0.088,4.706c0,0,0.088,2.624,3.083,2.874h9.603c0,0,2.819-0.084,3.347-2.166v-5.332
		c0,0,3.613,0.667,5.11-2.582l-2.996,0.083l-0.066-8.913h0.5h3.964v-1.832c0,0-1.85-3.832-14.36-3.415"/>
	<g>
		<path fill="#ED2224" d="M24.618,145.274v-2.916c0-1.104-0.947-1.999-2.114-1.999h-5.463c-1.168,0-2.114,0.895-2.114,1.999v2.916
			H24.618z"/>
		<path fill="#ED2224" d="M14.927,145.856v3.499c0,1.104,0.946,1.999,2.114,1.999h5.463c1.167,0,2.114-0.896,2.114-1.999v-3.499
			H14.927z"/>
	</g>
	<ellipse fill="none" cx="19.773" cy="132.695" rx="2.995" ry="2.833"/>
	<path fill="#ED2224" d="M8.672,126.948c0,0.597-0.513,1.083-1.145,1.083l0,0c-0.632,0-1.145-0.486-1.145-1.083v-5.332
		c0-0.598,0.513-1.083,1.145-1.083l0,0c0.632,0,1.145,0.485,1.145,1.083V126.948z"/>
	<path fill="#ED2224" d="M32.988,127.364c0,0.598-0.513,1.083-1.145,1.083l0,0c-0.633,0-1.145-0.485-1.145-1.083v-5.332
		c0-0.597,0.513-1.082,1.145-1.082l0,0c0.632,0,1.145,0.485,1.145,1.082V127.364z"/>
	<g>
		<path fill="#B65F27" d="M19.779,88.871H8.921c-1.272,0-2.304,0.975-2.304,2.18v13.619c0,1.203,1.032,2.18,2.304,2.18h10.857
			V88.871z"/>
		<path fill="#B65F27" d="M32.257,88.871H21.193v17.978h11.064c1.272,0,2.304-0.976,2.304-2.18V91.05
			C34.562,89.846,33.529,88.871,32.257,88.871z"/>
	</g>
	<g>
		<path fill="#B65F27" d="M19.779,64.297H8.921c-1.272,0-2.304,0.975-2.304,2.179v13.62c0,1.204,1.032,2.179,2.304,2.179h10.857
			V64.297z"/>
		<path fill="#B65F27" d="M32.257,64.297H21.193v17.977h11.064c1.272,0,2.304-0.975,2.304-2.179v-13.62
			C34.562,65.272,33.529,64.297,32.257,64.297z"/>
	</g>
	<g>
		<path fill="#B65F27" d="M19.779,39.614H8.921c-1.272,0-2.304,0.976-2.304,2.18v13.619c0,1.203,1.032,2.179,2.304,2.179h10.857
			V39.614z"/>
		<path fill="#B65F27" d="M32.257,39.614H21.193v17.978h11.064c1.272,0,2.304-0.976,2.304-2.179V41.794
			C34.562,40.59,33.529,39.614,32.257,39.614z"/>
	</g>
</g>
</svg>
